<svg xmlns="http://www.w3.org/2000/svg" width="19" height="19" viewBox="0 0 19 19" >
	<path d="M14.707 13.293L14.7071 13.2929L13.8535 13.1464L13.14 12.4329C14.2948 11.1137 15 9.39105 15 7.5C15 3.35785 11.6422 0 7.5 0C3.35785 0 0 3.35785 0 7.5C0 11.6422 3.35785 15 7.5 15C9.39105 15 11.1137 14.2948 12.4329 13.14L13.1464 13.8535L13.2929 14.7071L13.293 14.707L17.293 18.707L18.707 17.293L14.707 13.293ZM7.5 13C4.46729 13 2 10.5327 2 7.5C2 4.46729 4.46729 2 7.5 2C10.5327 2 13 4.46729 13 7.5C13 10.5327 10.5327 13 7.5 13Z" fill="currentColor" stroke="none" />
</svg>
